<mxfile host="app.diagrams.net" agent="Mozilla/5.0 (Windows NT 10.0; Win64; x64) AppleWebKit/537.36 (KHTML, like Gecko) Chrome/133.0.0.0 Safari/537.36" version="26.0.16">
  <diagram name="Page-1" id="BTrckwot_-F4dzWZuFL2">
    <mxGraphModel dx="5833" dy="2413" grid="1" gridSize="10" guides="1" tooltips="1" connect="1" arrows="1" fold="1" page="1" pageScale="1" pageWidth="1100" pageHeight="850" math="0" shadow="0">
      <root>
        <mxCell id="0" />
        <mxCell id="1" parent="0" />
        <mxCell id="hGbQcSONSA1rz6Zzxl9p-1" value="220kV电网" style="whiteSpace=wrap;strokeWidth=2;" vertex="1" parent="1">
          <mxGeometry x="1135" y="20" width="135" height="54" as="geometry" />
        </mxCell>
        <mxCell id="hGbQcSONSA1rz6Zzxl9p-2" value="220kV GIS变电站" style="whiteSpace=wrap;strokeWidth=2;" vertex="1" parent="1">
          <mxGeometry x="1114" y="147" width="178" height="54" as="geometry" />
        </mxCell>
        <mxCell id="hGbQcSONSA1rz6Zzxl9p-3" value="主变1: 220kV/10kV, 120MVA" style="whiteSpace=wrap;strokeWidth=2;" vertex="1" parent="1">
          <mxGeometry x="1742" y="274" width="258" height="54" as="geometry" />
        </mxCell>
        <mxCell id="hGbQcSONSA1rz6Zzxl9p-4" value="主变2: 220kV/10kV, 120MVA" style="whiteSpace=wrap;strokeWidth=2;" vertex="1" parent="1">
          <mxGeometry x="406" y="274" width="258" height="54" as="geometry" />
        </mxCell>
        <mxCell id="hGbQcSONSA1rz6Zzxl9p-5" value="Ⅰ段10kV母线" style="whiteSpace=wrap;strokeWidth=2;" vertex="1" parent="1">
          <mxGeometry x="1798" y="514" width="148" height="54" as="geometry" />
        </mxCell>
        <mxCell id="hGbQcSONSA1rz6Zzxl9p-6" value="Ⅱ段10kV母线" style="whiteSpace=wrap;strokeWidth=2;" vertex="1" parent="1">
          <mxGeometry x="486" y="505" width="153" height="54" as="geometry" />
        </mxCell>
        <mxCell id="hGbQcSONSA1rz6Zzxl9p-7" value="轧钢车间馈线柜" style="whiteSpace=wrap;strokeWidth=2;" vertex="1" parent="1">
          <mxGeometry x="1284" y="641" width="172" height="54" as="geometry" />
        </mxCell>
        <mxCell id="hGbQcSONSA1rz6Zzxl9p-8" value="电弧炉馈线柜" style="whiteSpace=wrap;strokeWidth=2;" vertex="1" parent="1">
          <mxGeometry x="1675" y="641" width="156" height="54" as="geometry" />
        </mxCell>
        <mxCell id="hGbQcSONSA1rz6Zzxl9p-9" value="连铸机馈线柜" style="whiteSpace=wrap;strokeWidth=2;" vertex="1" parent="1">
          <mxGeometry x="41" y="632" width="156" height="54" as="geometry" />
        </mxCell>
        <mxCell id="hGbQcSONSA1rz6Zzxl9p-10" value="空压站馈线柜" style="whiteSpace=wrap;strokeWidth=2;" vertex="1" parent="1">
          <mxGeometry x="247" y="632" width="156" height="54" as="geometry" />
        </mxCell>
        <mxCell id="hGbQcSONSA1rz6Zzxl9p-11" value="光伏电站接入点: 5MW" style="whiteSpace=wrap;strokeWidth=2;fillColor=#f8cecc;strokeColor=#b85450;" vertex="1" parent="1">
          <mxGeometry x="1881" y="641" width="216" height="54" as="geometry" />
        </mxCell>
        <mxCell id="hGbQcSONSA1rz6Zzxl9p-12" value="储能系统: 2MW/4MWh" style="whiteSpace=wrap;strokeWidth=2;fillColor=#f8cecc;strokeColor=#b85450;" vertex="1" parent="1">
          <mxGeometry x="453" y="632" width="219" height="54" as="geometry" />
        </mxCell>
        <mxCell id="hGbQcSONSA1rz6Zzxl9p-13" value="应急电源: 1.5MW" style="whiteSpace=wrap;strokeWidth=2;" vertex="1" parent="1">
          <mxGeometry x="2147" y="641" width="182" height="54" as="geometry" />
        </mxCell>
        <mxCell id="hGbQcSONSA1rz6Zzxl9p-14" value="市政电网10kV联络点" style="whiteSpace=wrap;strokeWidth=2;" vertex="1" parent="1">
          <mxGeometry x="721" y="632" width="206" height="54" as="geometry" />
        </mxCell>
        <mxCell id="hGbQcSONSA1rz6Zzxl9p-15" value="粗轧电机: 2500kW" style="whiteSpace=wrap;strokeWidth=2;" vertex="1" parent="1">
          <mxGeometry x="1151" y="768" width="190" height="54" as="geometry" />
        </mxCell>
        <mxCell id="hGbQcSONSA1rz6Zzxl9p-16" value="精轧机组: 1800kW×3" style="whiteSpace=wrap;strokeWidth=2;" vertex="1" parent="1">
          <mxGeometry x="1391" y="768" width="207" height="54" as="geometry" />
        </mxCell>
        <mxCell id="hGbQcSONSA1rz6Zzxl9p-17" value="电弧炉变压器: 35MVA" style="whiteSpace=wrap;strokeWidth=2;" vertex="1" parent="1">
          <mxGeometry x="1647" y="768" width="212" height="54" as="geometry" />
        </mxCell>
        <mxCell id="hGbQcSONSA1rz6Zzxl9p-18" value="连铸变频器: 800kW" style="whiteSpace=wrap;strokeWidth=2;" vertex="1" parent="1">
          <mxGeometry x="20" y="736" width="198" height="54" as="geometry" />
        </mxCell>
        <mxCell id="hGbQcSONSA1rz6Zzxl9p-19" value="微机保护装置" style="whiteSpace=wrap;strokeWidth=2;fillColor=#d5e8d4;strokeColor=#82b366;" vertex="1" parent="1">
          <mxGeometry x="2380" y="641" width="156" height="54" as="geometry" />
        </mxCell>
        <mxCell id="hGbQcSONSA1rz6Zzxl9p-20" value="电能质量监测仪" style="whiteSpace=wrap;strokeWidth=2;fillColor=#1ba1e2;fontColor=#ffffff;strokeColor=#006EAF;" vertex="1" parent="1">
          <mxGeometry x="-172" y="620" width="172" height="54" as="geometry" />
        </mxCell>
        <mxCell id="hGbQcSONSA1rz6Zzxl9p-21" value="谐波抑制装置" style="whiteSpace=wrap;strokeWidth=2;fillColor=#d5e8d4;strokeColor=#82b366;" vertex="1" parent="1">
          <mxGeometry x="1675" y="872" width="156" height="54" as="geometry" />
        </mxCell>
        <mxCell id="hGbQcSONSA1rz6Zzxl9p-22" value="双回架空线" style="curved=1;startArrow=none;endArrow=block;exitX=0.5;exitY=1;entryX=0.5;entryY=0;rounded=0;" edge="1" parent="1" source="hGbQcSONSA1rz6Zzxl9p-1" target="hGbQcSONSA1rz6Zzxl9p-2">
          <mxGeometry relative="1" as="geometry">
            <Array as="points" />
          </mxGeometry>
        </mxCell>
        <mxCell id="hGbQcSONSA1rz6Zzxl9p-23" value="220kV电缆" style="curved=1;startArrow=none;endArrow=block;exitX=1;exitY=0.71;entryX=0.5;entryY=0;rounded=0;" edge="1" parent="1" source="hGbQcSONSA1rz6Zzxl9p-2" target="hGbQcSONSA1rz6Zzxl9p-3">
          <mxGeometry relative="1" as="geometry">
            <Array as="points">
              <mxPoint x="1698" y="238" />
            </Array>
          </mxGeometry>
        </mxCell>
        <mxCell id="hGbQcSONSA1rz6Zzxl9p-24" value="220kV电缆" style="curved=1;startArrow=none;endArrow=block;exitX=0;exitY=0.66;entryX=0.5;entryY=0;rounded=0;" edge="1" parent="1" source="hGbQcSONSA1rz6Zzxl9p-2" target="hGbQcSONSA1rz6Zzxl9p-4">
          <mxGeometry relative="1" as="geometry">
            <Array as="points">
              <mxPoint x="535" y="238" />
            </Array>
          </mxGeometry>
        </mxCell>
        <mxCell id="hGbQcSONSA1rz6Zzxl9p-25" value="" style="curved=1;startArrow=none;endArrow=block;exitX=0.5;exitY=1;entryX=0.5;entryY=0;rounded=0;" edge="1" parent="1" source="hGbQcSONSA1rz6Zzxl9p-3" target="hGbQcSONSA1rz6Zzxl9p-5">
          <mxGeometry relative="1" as="geometry">
            <Array as="points" />
          </mxGeometry>
        </mxCell>
        <mxCell id="hGbQcSONSA1rz6Zzxl9p-26" value="" style="curved=1;startArrow=none;endArrow=block;exitX=0.5;exitY=1;entryX=0.42;entryY=0;rounded=0;" edge="1" parent="1" source="hGbQcSONSA1rz6Zzxl9p-4" target="hGbQcSONSA1rz6Zzxl9p-6">
          <mxGeometry relative="1" as="geometry">
            <Array as="points">
              <mxPoint x="535" y="469" />
            </Array>
          </mxGeometry>
        </mxCell>
        <mxCell id="hGbQcSONSA1rz6Zzxl9p-27" value="母联开关" style="curved=1;startArrow=block;endArrow=block;exitX=0;exitY=0.63;entryX=1;entryY=0.3;rounded=0;" edge="1" parent="1" source="hGbQcSONSA1rz6Zzxl9p-5" target="hGbQcSONSA1rz6Zzxl9p-6">
          <mxGeometry relative="1" as="geometry">
            <Array as="points">
              <mxPoint x="1018" y="469" />
            </Array>
          </mxGeometry>
        </mxCell>
        <mxCell id="hGbQcSONSA1rz6Zzxl9p-28" value="" style="curved=1;startArrow=none;endArrow=block;exitX=0;exitY=0.67;entryX=0.5;entryY=0;rounded=0;" edge="1" parent="1" source="hGbQcSONSA1rz6Zzxl9p-5" target="hGbQcSONSA1rz6Zzxl9p-7">
          <mxGeometry relative="1" as="geometry">
            <Array as="points">
              <mxPoint x="1370" y="605" />
            </Array>
          </mxGeometry>
        </mxCell>
        <mxCell id="hGbQcSONSA1rz6Zzxl9p-29" value="" style="curved=1;startArrow=none;endArrow=block;exitX=0.16;exitY=1;entryX=0.5;entryY=0;rounded=0;" edge="1" parent="1" source="hGbQcSONSA1rz6Zzxl9p-5" target="hGbQcSONSA1rz6Zzxl9p-8">
          <mxGeometry relative="1" as="geometry">
            <Array as="points">
              <mxPoint x="1753" y="605" />
            </Array>
          </mxGeometry>
        </mxCell>
        <mxCell id="hGbQcSONSA1rz6Zzxl9p-30" value="" style="curved=1;startArrow=none;endArrow=block;exitX=0;exitY=0.7;entryX=0.5;entryY=0;rounded=0;" edge="1" parent="1" source="hGbQcSONSA1rz6Zzxl9p-6" target="hGbQcSONSA1rz6Zzxl9p-9">
          <mxGeometry relative="1" as="geometry">
            <Array as="points">
              <mxPoint x="119" y="596" />
            </Array>
          </mxGeometry>
        </mxCell>
        <mxCell id="hGbQcSONSA1rz6Zzxl9p-31" value="" style="curved=1;startArrow=none;endArrow=block;exitX=0;exitY=0.88;entryX=0.5;entryY=0;rounded=0;" edge="1" parent="1" source="hGbQcSONSA1rz6Zzxl9p-6" target="hGbQcSONSA1rz6Zzxl9p-10">
          <mxGeometry relative="1" as="geometry">
            <Array as="points">
              <mxPoint x="325" y="596" />
            </Array>
          </mxGeometry>
        </mxCell>
        <mxCell id="hGbQcSONSA1rz6Zzxl9p-32" value="" style="curved=1;startArrow=none;endArrow=block;exitX=0.83;exitY=1;entryX=0.5;entryY=0;rounded=0;" edge="1" parent="1" source="hGbQcSONSA1rz6Zzxl9p-5" target="hGbQcSONSA1rz6Zzxl9p-11">
          <mxGeometry relative="1" as="geometry">
            <Array as="points">
              <mxPoint x="1989" y="605" />
            </Array>
          </mxGeometry>
        </mxCell>
        <mxCell id="hGbQcSONSA1rz6Zzxl9p-33" value="" style="curved=1;startArrow=none;endArrow=block;exitX=0.5;exitY=1;entryX=0.5;entryY=0;rounded=0;" edge="1" parent="1" source="hGbQcSONSA1rz6Zzxl9p-6" target="hGbQcSONSA1rz6Zzxl9p-12">
          <mxGeometry relative="1" as="geometry">
            <Array as="points" />
          </mxGeometry>
        </mxCell>
        <mxCell id="hGbQcSONSA1rz6Zzxl9p-34" value="备用柴油发电机" style="curved=1;dashed=1;dashPattern=2 3;startArrow=none;endArrow=block;exitX=0.99;exitY=0.74;entryX=0.5;entryY=0;rounded=0;" edge="1" parent="1" source="hGbQcSONSA1rz6Zzxl9p-5" target="hGbQcSONSA1rz6Zzxl9p-13">
          <mxGeometry relative="1" as="geometry">
            <Array as="points">
              <mxPoint x="2239" y="605" />
            </Array>
          </mxGeometry>
        </mxCell>
        <mxCell id="hGbQcSONSA1rz6Zzxl9p-35" value="市电备用" style="curved=1;dashed=1;dashPattern=2 3;startArrow=none;endArrow=block;exitX=1;exitY=0.84;entryX=0.5;entryY=0;rounded=0;" edge="1" parent="1" source="hGbQcSONSA1rz6Zzxl9p-6" target="hGbQcSONSA1rz6Zzxl9p-14">
          <mxGeometry relative="1" as="geometry">
            <Array as="points">
              <mxPoint x="824" y="596" />
            </Array>
          </mxGeometry>
        </mxCell>
        <mxCell id="hGbQcSONSA1rz6Zzxl9p-36" value="" style="curved=1;startArrow=none;endArrow=block;exitX=0.19;exitY=1;entryX=0.5;entryY=0;rounded=0;" edge="1" parent="1" source="hGbQcSONSA1rz6Zzxl9p-7" target="hGbQcSONSA1rz6Zzxl9p-15">
          <mxGeometry relative="1" as="geometry">
            <Array as="points">
              <mxPoint x="1246" y="732" />
            </Array>
          </mxGeometry>
        </mxCell>
        <mxCell id="hGbQcSONSA1rz6Zzxl9p-37" value="" style="curved=1;startArrow=none;endArrow=block;exitX=0.81;exitY=1;entryX=0.5;entryY=0;rounded=0;" edge="1" parent="1" source="hGbQcSONSA1rz6Zzxl9p-7" target="hGbQcSONSA1rz6Zzxl9p-16">
          <mxGeometry relative="1" as="geometry">
            <Array as="points">
              <mxPoint x="1494" y="732" />
            </Array>
          </mxGeometry>
        </mxCell>
        <mxCell id="hGbQcSONSA1rz6Zzxl9p-38" value="" style="curved=1;startArrow=none;endArrow=block;exitX=0.5;exitY=1;entryX=0.5;entryY=0;rounded=0;" edge="1" parent="1" source="hGbQcSONSA1rz6Zzxl9p-8" target="hGbQcSONSA1rz6Zzxl9p-17">
          <mxGeometry relative="1" as="geometry">
            <Array as="points" />
          </mxGeometry>
        </mxCell>
        <mxCell id="hGbQcSONSA1rz6Zzxl9p-39" value="" style="curved=1;startArrow=none;endArrow=block;exitX=0.5;exitY=1;entryX=0.5;entryY=0;rounded=0;" edge="1" parent="1" source="hGbQcSONSA1rz6Zzxl9p-9" target="hGbQcSONSA1rz6Zzxl9p-18">
          <mxGeometry relative="1" as="geometry">
            <Array as="points" />
          </mxGeometry>
        </mxCell>
        <mxCell id="hGbQcSONSA1rz6Zzxl9p-40" value="" style="curved=1;startArrow=none;endArrow=block;exitX=0.99;exitY=0.65;entryX=0.5;entryY=0;rounded=0;" edge="1" parent="1" source="hGbQcSONSA1rz6Zzxl9p-5" target="hGbQcSONSA1rz6Zzxl9p-19">
          <mxGeometry relative="1" as="geometry">
            <Array as="points">
              <mxPoint x="2458" y="605" />
            </Array>
          </mxGeometry>
        </mxCell>
        <mxCell id="hGbQcSONSA1rz6Zzxl9p-42" value="" style="curved=1;startArrow=none;endArrow=block;exitX=0.5;exitY=1;entryX=0.5;entryY=0;rounded=0;" edge="1" parent="1" source="hGbQcSONSA1rz6Zzxl9p-17" target="hGbQcSONSA1rz6Zzxl9p-21">
          <mxGeometry relative="1" as="geometry">
            <Array as="points" />
          </mxGeometry>
        </mxCell>
        <mxCell id="hGbQcSONSA1rz6Zzxl9p-43" value="" style="curved=1;startArrow=none;endArrow=block;exitX=0;exitY=0.25;entryX=0.5;entryY=0;rounded=0;exitDx=0;exitDy=0;" edge="1" parent="1" source="hGbQcSONSA1rz6Zzxl9p-6">
          <mxGeometry relative="1" as="geometry">
            <Array as="points">
              <mxPoint x="-80" y="584" />
            </Array>
            <mxPoint x="287" y="531" as="sourcePoint" />
            <mxPoint x="-80" y="620" as="targetPoint" />
          </mxGeometry>
        </mxCell>
      </root>
    </mxGraphModel>
  </diagram>
</mxfile>
